<svg version="1.1" xmlns="http://www.w3.org/2000/svg" xmlns:xlink="http://www.w3.org/1999/xlink" width="109.5" height="109.5" viewBox="0,0,109.5,109.5"><g transform="translate(-7.85001,-242.35001)"><g data-paper-data="{&quot;isPaintingLayer&quot;:true}" stroke-linecap="butt" stroke-linejoin="miter" stroke-miterlimit="10" stroke-dasharray="" stroke-dashoffset="0" style="mix-blend-mode: normal"><path d="M16.60001,297.10001c0,-25.4051 20.5949,-46 46,-46c25.4051,0 46,20.5949 46,46c0,25.4051 -20.5949,46 -46,46c-25.4051,0 -46,-20.5949 -46,-46z" fill="none" fill-rule="nonzero" stroke-opacity="0.5" stroke="#cc0000" stroke-width="17.5"/><path d="M16.60001,297.10001c0,-25.4051 20.5949,-46 46,-46c25.4051,0 46,20.5949 46,46c0,25.4051 -20.5949,46 -46,46c-25.4051,0 -46,-20.5949 -46,-46z" fill="#cc0000" fill-rule="nonzero" stroke="#cc0000" stroke-width="0"/><path d="M89.60594,270.53902h2.31548c1.27881,0 2.31548,1.03667 2.31548,2.31548c0,1.27881 -1.03667,2.31548 -2.31548,2.31548h-2.31548v2.31548c0,1.27881 -1.03667,2.31548 -2.31548,2.31548c-1.27881,0 -2.31548,-1.03667 -2.31548,-2.31548v-2.31548h-2.31548c-1.27881,0 -2.31548,-1.03667 -2.31548,-2.31548c0,-1.27881 1.03667,-2.31548 2.31548,-2.31548h2.31548v-2.31548c0,-1.27881 1.03667,-2.31548 2.31548,-2.31548c1.27881,0 2.31548,1.03667 2.31548,2.31548zM81.64511,301.06342c0,10.0443 -8.17676,14.24152 -18.22105,14.24152c-10.04049,0 -18.17521,-4.19722 -18.17521,-14.24152c0,-2.48244 0.41628,-4.58295 1.22211,-6.33975l-0.30552,-14.51268c-0.03819,-1.60404 1.75678,-2.52063 3.05529,-1.56585l7.75284,5.84326c1.79499,-0.95478 4.01007,-1.37488 6.45049,-1.37488c2.44806,0 4.70135,0.4201 6.49634,1.37488l7.75282,-5.84326c1.26031,-0.95478 3.0553,-0.03819 3.0553,1.56585l-0.30552,14.51268c0.80202,1.7568 1.22211,3.85731 1.22211,6.33975zM71.10127,307.32563c0.5385,-0.56905 0.45829,-1.48945 -0.14895,-2.02413c-0.57286,-0.49648 -1.49327,-0.4201 -2.02413,0.19478c-0.42392,0.49267 -1.035,0.76 -1.68425,0.76c-1.22212,0 -2.25328,-0.99297 -2.25328,-2.25328v-2.10052c2.21509,-0.61105 3.89551,-2.47861 3.89551,-3.70455c0,-1.52764 -2.40606,-1.52764 -5.30859,-1.52764c-2.93691,0 -5.30476,0 -5.30476,1.52764c0,1.22594 1.60402,3.09349 3.8535,3.66636v2.13871c0,1.26031 -0.98916,2.25328 -2.21509,2.25328c-0.68362,0 -1.2985,-0.26733 -1.71861,-0.76c-0.49648,-0.61488 -1.41307,-0.69126 -2.02413,-0.19478c-0.60724,0.53467 -0.64926,1.45508 -0.14895,2.02413c0.95478,1.14575 2.36404,1.79499 3.89169,1.79499c1.41307,0 2.71158,-0.60724 3.66636,-1.56202c0.9204,0.95478 2.21509,1.56202 3.66636,1.56202c1.49328,0 2.90254,-0.64924 3.85732,-1.79499z" fill="#ffffff" fill-rule="evenodd" stroke="none" stroke-width="1"/></g></g></svg>