<svg version="1.1" xmlns="http://www.w3.org/2000/svg" xmlns:xlink="http://www.w3.org/1999/xlink" width="183.72265" height="147.14554" viewBox="0,0,183.72265,147.14554"><g transform="translate(-2.0045,-210.84996)"><g data-paper-data="{&quot;isPaintingLayer&quot;:true}" stroke-miterlimit="10" stroke-dasharray="" stroke-dashoffset="0" style="mix-blend-mode: normal"><path d="M4.5045,355.4955v-142.14554h178.72265v142.14554z" fill="#057a88" fill-rule="nonzero" stroke="#ffffff" stroke-width="5" stroke-linecap="butt" stroke-linejoin="miter"/><path d="M149.15935,334.66107c0,1.99281 -1.61732,3.61016 -3.61013,3.61016h-74.3907c-0.9603,0 -1.87725,0.37544 -2.54875,1.05416l-5.03976,5.03976c-0.6715,0.6715 -1.58848,1.05416 -2.54878,1.05416h-18.67169c-0.9603,0 -1.87725,-0.38266 -2.54875,-1.05416l-5.03976,-5.03976c-0.67872,-0.67872 -1.58848,-1.05416 -2.54878,-1.05416h-9.40805c-1.99281,0 -3.61013,-1.61735 -3.61013,-3.61016v-28.95337c0,-1.99281 1.61732,-3.61016 3.61013,-3.61016h9.33583c0.9603,0 1.87728,0.38266 2.54878,1.05416l5.11197,5.11197c0.6715,0.6715 1.58845,1.05416 2.54875,1.05416h18.67169c0.9603,0 1.87728,-0.38266 2.54878,-1.05416l5.11194,-5.11197c0.6715,-0.6715 1.58848,-1.05416 2.54878,-1.05416h74.31849c1.99281,0 3.61013,1.61735 3.61013,3.61016zM113.02972,284.11902c0,1.99281 -1.61732,3.61016 -3.61013,3.61016h-38.26033c-0.9603,0 -1.87728,0.37544 -2.54878,1.05416l-5.03976,5.03976c-0.6715,0.6715 -1.58848,1.05416 -2.54878,1.05416h-18.67166c-0.9603,0 -1.87728,-0.38266 -2.556,-1.05416l-5.03253,-5.03976c-0.67872,-0.67872 -1.5957,-1.05416 -2.54878,-1.05416h-9.40805c-1.99281,0 -3.61013,-1.61735 -3.61013,-3.61016v-28.95337c0,-1.99281 1.61732,-3.61016 3.61013,-3.61016h9.33586c0.9603,0 1.87725,0.38266 2.54875,1.05416l5.10475,5.11197c0.67872,0.6715 1.5957,1.05416 2.556,1.05416h18.67166c0.9603,0 1.87728,-0.38266 2.54878,-1.05416l5.10475,-5.11197c0.67872,-0.6715 1.59567,-1.05416 2.55597,-1.05416h38.18815c1.99281,0 3.61013,1.61735 3.61013,3.61016z" fill="#ffffff" fill-rule="evenodd" stroke="none" stroke-width="1" stroke-linecap="butt" stroke-linejoin="miter"/><path d="M149.15935,222.67433v28.88115" fill="none" fill-rule="evenodd" stroke="#ffffff" stroke-width="5" stroke-linecap="round" stroke-linejoin="round"/><path d="M163.59992,237.11491h-28.88115" fill="none" fill-rule="evenodd" stroke="#ffffff" stroke-width="5" stroke-linecap="round" stroke-linejoin="round"/></g></g></svg>